# xmcd CD database file
#
# Track frame offsets:
#	150
#	15812
#	32632
#	48377
#	67892
#	85347
#	99975
#	115420
#	130327
#	154452
#	172735
#
# Disc length: 2593 seconds
#
# Revision: 11
# Processed by: cddbd v1.5.1PL2 Copyright (c) Steve Scherf et al.
# Submitted via: CDex 1.51
#
DISCID=7f0a1f0b
DTITLE=Hitomi Yaida - i flancy
DYEAR=2002
DGENRE=Pop
TTITLE0=Creamed potatoes
TTITLE1=Mikansei no melody
TTITLE2=Andante
TTITLE3=Ring my bell
TTITLE4=Niji no drive
TTITLE5=Change your mind
TTITLE6=Dizzy dive
TTITLE7=Aitai hito
TTITLE8=i can fly
TTITLE9=i really want to understand you
TTITLE10=Ashita kara no tegami
EXTD=YEAR: 2002
EXTT0=
EXTT1=
EXTT2=
EXTT3=
EXTT4=
EXTT5=
EXTT6=
EXTT7=
EXTT8=
EXTT9=
EXTT10=
PLAYORDER=
